<?xml version="1.0" encoding="UTF-8"?>
<svg version="1.1" xmlns="http://www.w3.org/2000/svg" width="500" height="500">
<path d="M0 0 C165 0 330 0 500 0 C500 165 500 330 500 500 C335 500 170 500 0 500 C0 335 0 170 0 0 Z " fill="#FEFEFF" transform="translate(0,0)"/>
<path d="M0 0 C4.96598441 4.12414801 9.78340398 8.40591498 14.5 12.8125 C15.31339844 13.57175781 16.12679688 14.33101562 16.96484375 15.11328125 C49.68675489 46.69793798 68.84512684 92.72357075 69.75 137.93359375 C69.78858085 140.76828089 69.8050586 143.60257452 69.8125 146.4375 C69.81617584 147.10832611 69.81985168 147.77915222 69.82363892 148.4703064 C69.8493912 157.44766432 69.07655857 165.98223765 67.5 174.8125 C67.30522868 176.13213208 67.11428594 177.45234397 66.9296875 178.7734375 C63.04192598 202.70233589 52.89668899 226.84361104 38.72729492 246.48583984 C37.18369377 248.61890003 37.18369377 248.61890003 35.5 251.8125 C36.65899501 255.4785008 39.24592613 257.79771582 41.92758179 260.46040344 C42.85852158 261.38975708 43.78946136 262.31911072 44.74861145 263.27662659 C45.78333647 264.29948918 46.81814456 265.32226773 47.85302734 266.3449707 C48.94086537 267.42733221 50.02824108 268.51015853 51.1151886 269.59341431 C53.45598697 271.92450384 55.79980658 274.25249757 58.1459465 276.57821083 C61.85805034 280.25848413 65.56196927 283.94692075 69.26455688 287.63676453 C78.46409103 296.80221937 87.67285227 305.9583887 96.88653564 315.10961914 C104.04412559 322.21871607 111.19848025 329.33099474 118.34232867 336.45390385 C122.01958327 340.11965642 125.70366468 343.7783612 129.39306235 347.43189013 C131.69135391 349.71093545 133.98331653 351.99626525 136.27359581 354.28335953 C137.33355575 355.33931382 138.39608871 356.39269288 139.46142387 357.44322395 C147.46844422 365.34300074 153.51950782 371.74865425 153.8125 383.4375 C153.73738349 391.13694273 151.57762623 398.6979091 146.140625 404.4296875 C138.36036203 410.98733772 131.10325926 412.86884043 121.16796875 412.25390625 C107.57490655 410.61810643 97.88892545 397.35066093 88.72607422 388.15209961 C87.6903448 387.1160873 86.65439351 386.08029676 85.61824036 385.04470825 C82.83775337 382.26450524 80.06033516 379.48125554 77.28350592 376.69739985 C74.36921289 373.77680615 71.45204017 370.8590915 68.53518677 367.9410553 C63.02632306 362.42909791 57.52001087 356.91459908 52.01463711 351.39915615 C45.74082534 345.11412191 39.46413432 338.83196639 33.18721366 332.55003726 C20.28829561 319.64069933 7.39295278 306.72779551 -5.5 293.8125 C-7.40290409 294.91700392 -9.30511219 296.02270699 -11.20703125 297.12890625 C-12.26639893 297.74451416 -13.3257666 298.36012207 -14.41723633 298.99438477 C-17.03630106 300.53902522 -19.6174953 302.12575703 -22.1875 303.75 C-58.15107068 325.12457503 -105.87654013 335.3368995 -147.1940918 325.51098633 C-148.62430652 325.14077764 -150.05159001 324.75898416 -151.47509766 324.36376953 C-153.49838057 323.81294088 -155.52529297 323.34741952 -157.57421875 322.90234375 C-189.79855319 315.7575108 -217.38796257 298.93403661 -241.5 276.8125 C-242.83611328 275.60207031 -242.83611328 275.60207031 -244.19921875 274.3671875 C-273.98263862 246.07054061 -291.72261965 205.11028181 -296.5 164.8125 C-296.59571289 164.017229 -296.69142578 163.22195801 -296.79003906 162.40258789 C-302.14829448 114.07746173 -287.22954295 66.82714157 -257.10009766 29.05761719 C-247.13749382 16.74491438 -236.17117682 6.29381073 -223.5 -3.1875 C-222.66855469 -3.81398437 -221.83710938 -4.44046875 -220.98046875 -5.0859375 C-218.53032525 -6.86406549 -216.03981854 -8.53966287 -213.5 -10.1875 C-212.94103027 -10.55166016 -212.38206055 -10.91582031 -211.80615234 -11.29101562 C-193.93515098 -22.77582429 -174.24878211 -30.74163115 -153.5 -35.1875 C-152.66839355 -35.38069824 -151.83678711 -35.57389648 -150.97998047 -35.77294922 C-98.3728822 -47.83428094 -42.10759311 -32.97661738 0 0 Z " fill="#5170FF" transform="translate(320.5,62.1875)"/>
<path d="M0 0 C1.5778125 1.01707031 1.5778125 1.01707031 3.1875 2.0546875 C10.34106875 6.78631275 16.80276364 12.06604492 23 18 C23.80953125 18.73476562 24.6190625 19.46953125 25.453125 20.2265625 C49.7010954 43.0257548 61.19862236 76.79025386 62.38989258 109.38916016 C62.75462378 129.39139345 57.74070971 148.12025842 49 166 C48.48308594 167.06605469 47.96617187 168.13210938 47.43359375 169.23046875 C40.82148746 182.00426537 31.38449476 193.12206596 21 203 C19.97712891 203.99773437 19.97712891 203.99773437 18.93359375 205.015625 C12.5228473 211.06621716 5.6939426 215.73095379 -2 220 C-2.60585938 220.33918457 -3.21171875 220.67836914 -3.8359375 221.02783203 C-33.6308551 237.46294348 -68.55450165 241.63040765 -101.32421875 232.18359375 C-117.72948495 226.9011329 -133.00685387 219.46323644 -146 208 C-147.22589844 206.95392578 -147.22589844 206.95392578 -148.4765625 205.88671875 C-173.13432581 184.39705816 -188.59670786 155.60477319 -192 123 C-192.25308588 118.14107776 -192.28116661 113.30208763 -192.25 108.4375 C-192.25773437 107.22642578 -192.26546875 106.01535156 -192.2734375 104.76757812 C-192.20574373 73.17150896 -178.91342227 43.27356985 -156.85546875 20.8203125 C-155.90585023 19.87798168 -154.95414558 18.93774673 -154 18 C-153.19175781 17.19304687 -152.38351563 16.38609375 -151.55078125 15.5546875 C-136.66726164 1.43379451 -117.6859076 -8.54661112 -98 -14 C-96.86433594 -14.3196875 -95.72867188 -14.639375 -94.55859375 -14.96875 C-63.85500796 -22.12298358 -26.69365333 -17.267457 0 0 Z " fill="#FEFEFF" transform="translate(272,97)"/>
<path d="M0 0 C6.16618181 -0.40214229 11.17745757 1.03181664 17 3 C17.05607422 4.80597656 17.05607422 4.80597656 17.11328125 6.6484375 C17.17892928 8.22399011 17.24537701 9.79950954 17.3125 11.375 C17.33505859 12.1690625 17.35761719 12.963125 17.38085938 13.78125 C17.47785075 15.86215581 17.72994825 17.93441332 18 20 C20.76337022 22.2570538 20.76337022 22.2570538 23.625 21.9375 C27.49365863 20.8628726 30.39723917 19.12691519 33.75390625 16.9609375 C36.69384124 15.70315662 38.00951563 15.90957299 41 17 C44.9683101 20.23874106 48.77946665 23.83877318 49.3125 29.0625 C47.85768968 32.31850406 45.99409318 35.07756891 44.01171875 38.03125 C42.71325915 40.15119163 42.71325915 40.15119163 43.1875 43.5 C43.455625 44.325 43.72375 45.15 44 46 C48.99739836 47.62958642 53.61477043 48.33474857 58.86328125 48.65625 C61 49 61 49 63 51 C63.6328125 53.4609375 63.6328125 53.4609375 64.125 56.375 C64.37636719 57.80972656 64.37636719 57.80972656 64.6328125 59.2734375 C65 62 65 62 65 66 C60.38 68.31 55.76 70.62 51 73 C50.0933925 77.08368119 50.0933925 77.08368119 51 81 C54.69058206 84.50173648 58.72859843 87.25409899 63 90 C62.71259058 91.37589617 62.41982258 92.75067322 62.125 94.125 C61.88136719 95.27355469 61.88136719 95.27355469 61.6328125 96.4453125 C60.91139015 99.35772123 59.97801666 102.16457354 59 105 C57.73542969 104.95359375 56.47085938 104.9071875 55.16796875 104.859375 C53.50783609 104.82185788 51.84767792 104.78545765 50.1875 104.75 C49.35412109 104.71648437 48.52074219 104.68296875 47.66210938 104.6484375 C42.88134462 104.45238677 42.88134462 104.45238677 38.91796875 106.78125 C36.90454318 111.64774243 38.75502812 116.60969941 40.625 121.25 C42.3241402 125.88401871 42.3241402 125.88401871 41 129 C39.109375 130.95703125 39.109375 130.95703125 36.75 132.8125 C35.98171875 133.43769531 35.2134375 134.06289063 34.421875 134.70703125 C32 136 32 136 29.4296875 135.92578125 C26.60940538 134.85117214 25.3866277 133.59931081 23.375 131.375 C20.79180252 128.9452108 19.61625538 128.04959311 16.0390625 127.76171875 C13.30827283 128.03198971 10.67970731 128.41381403 8 129 C7.81824219 130.13179687 7.63648438 131.26359375 7.44921875 132.4296875 C7.19598508 133.91157342 6.94204189 135.39333823 6.6875 136.875 C6.56955078 137.62136719 6.45160156 138.36773437 6.33007812 139.13671875 C5.98331947 141.11057568 5.49860425 143.05893159 5 145 C1.36804504 147.42130331 -0.38349348 147.21022785 -4.6875 147.125 C-5.86699219 147.10695313 -7.04648438 147.08890625 -8.26171875 147.0703125 C-9.16535156 147.04710937 -10.06898438 147.02390625 -11 147 C-11.27972656 146.02417969 -11.55945313 145.04835938 -11.84765625 144.04296875 C-13.74654461 137.10441571 -13.74654461 137.10441571 -17.75 131.3671875 C-20.12125581 130.31443169 -22.29821872 129.94478739 -24.88671875 130.1484375 C-28.05414574 131.42477592 -29.89819242 133.61785791 -32.25 136.0625 C-33.58804688 137.44115234 -33.58804688 137.44115234 -34.953125 138.84765625 C-35.62859375 139.55792969 -36.3040625 140.26820313 -37 141 C-40.80470079 139.8335158 -44.04573999 138.55623932 -47.375 136.375 C-48.06335938 135.92898438 -48.75171875 135.48296875 -49.4609375 135.0234375 C-49.96882813 134.68570313 -50.47671875 134.34796875 -51 134 C-50.87625 133.05125 -50.7525 132.1025 -50.625 131.125 C-50.5425 130.48949219 -50.46 129.85398437 -50.375 129.19921875 C-50 127 -50 127 -49.3125 124.51953125 C-48.0251184 119.76334135 -48.0251184 119.76334135 -48.5625 114.95703125 C-49.87659143 112.84578877 -50.70650769 111.99796671 -53 111 C-56.12950772 111.09602395 -58.92227275 111.62134546 -61.96484375 112.3515625 C-65.06701435 113.01431709 -67.83823203 113.10366452 -71 113 C-72.03572896 111.25877451 -73.0531252 109.50663405 -74.0625 107.75 C-74.63097656 106.77546875 -75.19945312 105.8009375 -75.78515625 104.796875 C-77 102 -77 102 -77.00390625 99.90234375 C-75.53378485 97.1165495 -73.3631788 95.71502112 -70.875 93.8125 C-67.11871532 90.76522824 -67.11871532 90.76522824 -65.5625 86.4140625 C-65.84683551 84.1607036 -66.25979327 82.14457155 -67 80 C-67.83144531 79.66226563 -68.66289062 79.32453125 -69.51953125 78.9765625 C-70.60621094 78.53054687 -71.69289062 78.08453125 -72.8125 77.625 C-74.43091797 76.96371094 -74.43091797 76.96371094 -76.08203125 76.2890625 C-79 75 -79 75 -82 73 C-82.36328125 70.06640625 -82.36328125 70.06640625 -82.3125 66.5625 C-82.30863281 65.40878906 -82.30476562 64.25507813 -82.30078125 63.06640625 C-82 60 -82 60 -80 57 C-76.82899174 56.30553817 -73.7186048 55.82203254 -70.49804688 55.44726562 C-68.21721914 55.1460434 -68.21721914 55.1460434 -65 54 C-62.99887417 51.19227835 -61.94335764 49.38258863 -62.0859375 45.90234375 C-63.6765079 42.59205406 -66.19121049 40.05544263 -68.6015625 37.31640625 C-70 35 -70 35 -69.93359375 32.515625 C-68.84497913 29.58228687 -67.42010789 27.60267689 -65.4375 25.1875 C-64.47650391 24.00220703 -64.47650391 24.00220703 -63.49609375 22.79296875 C-63.00238281 22.20128906 -62.50867188 21.60960937 -62 21 C-58.08475613 21.39951468 -55.09131472 21.95760388 -51.5 23.625 C-47.44960648 25.21622603 -45.18377945 25.00410707 -41 24 C-39.48578999 22.48578999 -39.78690144 21.07527232 -39.68359375 18.96484375 C-39.62075195 17.75151367 -39.62075195 17.75151367 -39.55664062 16.51367188 C-39.51732422 15.66353516 -39.47800781 14.81339844 -39.4375 13.9375 C-39.37272461 12.65649414 -39.37272461 12.65649414 -39.30664062 11.34960938 C-39.20023298 9.23327963 -39.09958269 7.11666187 -39 5 C-37.274773 4.32320342 -35.54461061 3.65898 -33.8125 3 C-32.36810547 2.443125 -32.36810547 2.443125 -30.89453125 1.875 C-25.95685174 0.38236814 -25.95685174 0.38236814 -23 1 C-21.04296875 3.58984375 -21.04296875 3.58984375 -19.1875 6.9375 C-16.68618929 11.28970795 -16.68618929 11.28970795 -12.70703125 14.01953125 C-10.287242 14.33708929 -10.287242 14.33708929 -7 14 C-6.773125 13.360625 -6.54625 12.72125 -6.3125 12.0625 C-4.51434174 7.86679739 -2.26095979 3.96099444 0 0 Z " fill="#5371FF" transform="translate(215,134)"/>
<path d="M0 0 C7.61950302 5.92055978 13.92417007 16.24003101 15.22119141 25.88623047 C15.35904076 28.23668733 15.38979076 30.55592819 15.359375 32.91015625 C15.35107666 33.74208496 15.34277832 34.57401367 15.33422852 35.43115234 C14.99218343 47.98578938 10.74448655 56.76918186 1.97265625 65.62890625 C-8.32420102 75.17726898 -19.65341636 77.35304884 -33.33203125 77.03515625 C-43.36375636 76.47883163 -51.98879224 71.6265526 -59.078125 64.66015625 C-67.66204785 54.98373413 -72.04113314 42.95763733 -71.4921875 30.04296875 C-69.9629715 17.54956254 -63.95382734 7.16509383 -54.25 -0.80859375 C-36.56016994 -13.28056027 -17.53904941 -11.30807133 0 0 Z " fill="#FDFEFF" transform="translate(234.078125,173.33984375)"/>
</svg>
